<?xml version="1.0" encoding="UTF-8"?>
<svg width="21px" height="20px" viewBox="0 0 21 20" version="1.1" xmlns="http://www.w3.org/2000/svg" xmlns:xlink="http://www.w3.org/1999/xlink">
    <!-- Generator: Sketch 60 (88103) - https://sketch.com -->
    <title>Path</title>
    <desc>Created with Sketch.</desc>
    <g id="Page-1" stroke="none" stroke-width="1" fill="none" fill-rule="evenodd">
        <g id="send" transform="translate(-1.000000, -1.000000)" fill="#647A8E" fill-rule="nonzero">
            <path d="M11.6550554,11.6271157 L3.23008789,12.4425391 L1.01265191,19.5331774 C0.880285088,19.9523744 1.01044317,20.410122 1.34356706,20.6969592 C1.67669095,20.9837964 2.14869127,21.0445389 2.54358518,20.8513915 L21.0082519,11.9107412 C21.369284,11.7346327 21.5983121,11.3680915 21.5983121,10.9663971 C21.5983121,10.5647028 21.369284,10.1981616 21.0082519,10.022053 L2.55647725,1.0749567 C2.16158334,0.88180934 1.68958302,0.942551857 1.35645913,1.22938906 C1.02333524,1.51622626 0.893177158,1.97397382 1.02554398,2.39317082 L3.24297995,9.48380913 L11.6518324,10.2992325 C11.9915547,10.3328288 12.2504333,10.6185716 12.2504333,10.9599511 C12.2504333,11.3013306 11.9915547,11.5870734 11.6518324,11.6206697 L11.6550554,11.6271157 Z" id="Path"></path>
        </g>
    </g>
</svg>